<svg xmlns="http://www.w3.org/2000/svg" version="1.1" xmlns:xlink="http://www.w3.org/1999/xlink" xmlns:svgjs="http://svgjs.dev/svgjs" width="1440" height="250" preserveAspectRatio="none" viewBox="0 0 1440 250"><g mask="url(&quot;#SvgjsMask1024&quot;)" fill="none"><rect width="1440" height="250" x="0" y="0" fill="rgba(0, 40, 64, 1)"></rect><path d="M0,363.454C66.977,367.253,118.712,308.76,174.164,271.005C228.093,234.287,289.509,203.851,319.509,145.915C350.144,86.752,351.997,16.642,339.79,-48.854C327.897,-112.666,301.696,-176.711,251.669,-218.072C204.452,-257.109,138.09,-253.845,77.917,-265.361C23.912,-275.696,-28.455,-290.267,-82.828,-282.087C-143.108,-273.018,-203.639,-256.375,-249.412,-216.117C-298.642,-172.819,-345.479,-115.417,-346.858,-49.871C-348.217,14.721,-290.177,62.018,-256.422,117.104C-227.152,164.871,-202.314,213.132,-161.915,251.944C-113.681,298.283,-66.78,359.667,0,363.454" fill="#002033"></path><path d="M1440 690.444C1523.855 688.565 1600.159 653.602 1674.835 615.4100000000001 1756.845 573.467 1854.103 540.3299999999999 1894.9479999999999 457.76800000000003 1936.013 374.76 1892.186 278.157 1887.435 185.66899999999998 1882.1109999999999 82.02699999999999 1916.9-28.495000000000005 1865.342-118.56099999999998 1810.695-214.024 1713.3029999999999-295.294 1604.181-309.148 1497.269-322.722 1412.784-224.68599999999998 1311.12-188.926 1216.624-155.687 1105.8029999999999-170.24900000000002 1028.429-106.62900000000002 945.671-38.58300000000003 894.14 63.316 875.933 168.899 857.452 276.065 863.82 395.637 926.488 484.51300000000003 986.575 569.729 1101.525 587.277 1198.3029999999999 626.087 1277.285 657.761 1354.925 692.35 1440 690.444" fill="#00304d"></path></g><defs><mask id="SvgjsMask1024"><rect width="1440" height="250" fill="#ffffff"></rect></mask></defs></svg>